<svg xmlns="http://www.w3.org/2000/svg" viewBox="0 0 900 220" role="img" aria-labelledby="title desc">
  <title id="title">The True Remnant Network Logo</title>
  <desc id="desc">A cross, gathered remnant figures and wordmark for The True Remnant Network.</desc>
  <rect width="900" height="220" fill="#fbf7ef"/>
  <g transform="translate(42 30)">
    <path d="M18 112C21 56 59 22 108 22C123 22 136 26 148 34" fill="none" stroke="#c9962f" stroke-width="8" stroke-linecap="round"/>
    <path d="M22 128C48 118 98 118 134 131" fill="none" stroke="#07111f" stroke-width="7" stroke-linecap="round"/>
    <path d="M82 18V118M50 54H114" fill="none" stroke="#07111f" stroke-width="13" stroke-linecap="round"/>
    <circle cx="46" cy="94" r="7" fill="#c9962f"/>
    <circle cx="120" cy="94" r="7" fill="#c9962f"/>
    <path d="M38 120C42 106 49 102 56 120M110 120C114 106 121 102 128 120" fill="none" stroke="#c9962f" stroke-width="8" stroke-linecap="round"/>
  </g>
  <g transform="translate(225 72)">
    <text x="0" y="46" fill="#07111f" font-family="Georgia, Times New Roman, serif" font-size="48" letter-spacing="2" font-weight="700">THE TRUE REMNANT</text>
    <line x1="2" y1="82" x2="210" y2="82" stroke="#c9962f" stroke-width="3"/>
    <text x="235" y="93" fill="#936814" font-family="Arial, Helvetica, sans-serif" font-size="26" letter-spacing="18" font-weight="700">NETWORK</text>
    <line x1="435" y1="82" x2="650" y2="82" stroke="#c9962f" stroke-width="3"/>
  </g>
</svg>
